{
	"asset":{
		"generator":"Khronos glTF Blender I/O v4.2.57",
		"version":"2.0"
	},
	"scene":0,
	"scenes":[
		{
			"name":"Scene",
			"nodes":[
				0
			]
		}
	],
	"nodes":[
		{
			"mesh":0,
			"name":"Sphere"
		}
	],
	"materials":[
		{
			"doubleSided":true,
			"name":"Material.001",
			"pbrMetallicRoughness":{
				"baseColorFactor":[
					0.656789243221283,
					0.6483640074729919,
					0.6652687788009644,
					1
				],
				"roughnessFactor":0
			}
		}
	],
	"meshes":[
		{
			"name":"Mesh",
			"primitives":[
				{
					"attributes":{
						"POSITION":0,
						"NORMAL":1,
						"TEXCOORD_0":2
					},
					"indices":3,
					"material":0
				}
			]
		}
	],
	"accessors":[
		{
			"bufferView":0,
			"componentType":5126,
			"count":256512,
			"max":[
				0.9385101795196533,
				3.5160651206970215,
				0.5565088987350464
			],
			"min":[
				-0.9385101795196533,
				-0.9957292079925537,
				-5.306215286254883
			],
			"type":"VEC3"
		},
		{
			"bufferView":1,
			"componentType":5126,
			"count":256512,
			"type":"VEC3"
		},
		{
			"bufferView":2,
			"componentType":5126,
			"count":256512,
			"type":"VEC2"
		},
		{
			"bufferView":3,
			"componentType":5125,
			"count":384768,
			"type":"SCALAR"
		}
	],
	"bufferViews":[
		{
			"buffer":0,
			"byteLength":3078144,
			"byteOffset":0,
			"target":34962
		},
		{
			"buffer":0,
			"byteLength":3078144,
			"byteOffset":3078144,
			"target":34962
		},
		{
			"buffer":0,
			"byteLength":2052096,
			"byteOffset":6156288,
			"target":34962
		},
		{
			"buffer":0,
			"byteLength":1539072,
			"byteOffset":8208384,
			"target":34963
		}
	],
	"buffers":[
		{
			"byteLength":9747456,
			"uri":"otama.bin"
		}
	]
}
