{
	"asset":{
		"generator":"Khronos glTF Blender I/O v4.2.57",
		"version":"2.0"
	},
	"scene":0,
	"scenes":[
		{
			"name":"Scene",
			"nodes":[
				0
			]
		}
	],
	"nodes":[
		{
			"mesh":0,
			"name":"Circle",
			"rotation":[
				0.7071068286895752,
				0,
				0,
				0.7071068286895752
			],
			"translation":[
				0,
				1.9145079851150513,
				0
			]
		}
	],
	"materials":[
		{
			"doubleSided":true,
			"name":"Material.008",
			"pbrMetallicRoughness":{
				"baseColorFactor":[
					0.8030202388763428,
					0.753098726272583,
					0.06034703925251961,
					1
				],
				"metallicFactor":0,
				"roughnessFactor":0.5
			}
		},
		{
			"doubleSided":true,
			"name":"Material.009",
			"pbrMetallicRoughness":{
				"baseColorFactor":[
					0.75486159324646,
					0.7798738479614258,
					0.8000858426094055,
					1
				],
				"metallicFactor":0,
				"roughnessFactor":0.5
			}
		},
		{
			"doubleSided":true,
			"name":"Material.010",
			"pbrMetallicRoughness":{
				"baseColorFactor":[
					0.05391113460063934,
					0.08456963300704956,
					0.8003705143928528,
					1
				],
				"metallicFactor":0,
				"roughnessFactor":0.5
			}
		}
	],
	"meshes":[
		{
			"name":"Mesh",
			"primitives":[
				{
					"attributes":{
						"POSITION":0,
						"NORMAL":1,
						"TEXCOORD_0":2
					},
					"indices":3,
					"material":0
				},
				{
					"attributes":{
						"POSITION":4,
						"NORMAL":5,
						"TEXCOORD_0":6
					},
					"indices":7,
					"material":1
				},
				{
					"attributes":{
						"POSITION":8,
						"NORMAL":9,
						"TEXCOORD_0":10
					},
					"indices":11,
					"material":2
				}
			]
		}
	],
	"accessors":[
		{
			"bufferView":0,
			"componentType":5126,
			"count":141215,
			"max":[
				1.015842080116272,
				0,
				1.015842080116272
			],
			"min":[
				-1.015842080116272,
				-2.037888765335083,
				-1.015842080116272
			],
			"type":"VEC3"
		},
		{
			"bufferView":1,
			"componentType":5126,
			"count":141215,
			"type":"VEC3"
		},
		{
			"bufferView":2,
			"componentType":5126,
			"count":141215,
			"type":"VEC2"
		},
		{
			"bufferView":3,
			"componentType":5125,
			"count":299520,
			"type":"SCALAR"
		},
		{
			"bufferView":4,
			"componentType":5126,
			"count":83336,
			"max":[
				1.0191789865493774,
				0,
				1.0191789865493774
			],
			"min":[
				-1.0191789865493774,
				-0.11001300066709518,
				-1.0191789865493774
			],
			"type":"VEC3"
		},
		{
			"bufferView":5,
			"componentType":5126,
			"count":83336,
			"type":"VEC3"
		},
		{
			"bufferView":6,
			"componentType":5126,
			"count":83336,
			"type":"VEC2"
		},
		{
			"bufferView":7,
			"componentType":5125,
			"count":147456,
			"type":"SCALAR"
		},
		{
			"bufferView":8,
			"componentType":5126,
			"count":617179,
			"max":[
				0.2404821664094925,
				-0.013399182818830013,
				1.7251557111740112
			],
			"min":[
				-0.2404821664094925,
				-2.955535650253296,
				-0.24048209190368652
			],
			"type":"VEC3"
		},
		{
			"bufferView":9,
			"componentType":5126,
			"count":617179,
			"type":"VEC3"
		},
		{
			"bufferView":10,
			"componentType":5126,
			"count":617179,
			"type":"VEC2"
		},
		{
			"bufferView":11,
			"componentType":5125,
			"count":996096,
			"type":"SCALAR"
		}
	],
	"bufferViews":[
		{
			"buffer":0,
			"byteLength":1694580,
			"byteOffset":0,
			"target":34962
		},
		{
			"buffer":0,
			"byteLength":1694580,
			"byteOffset":1694580,
			"target":34962
		},
		{
			"buffer":0,
			"byteLength":1129720,
			"byteOffset":3389160,
			"target":34962
		},
		{
			"buffer":0,
			"byteLength":1198080,
			"byteOffset":4518880,
			"target":34963
		},
		{
			"buffer":0,
			"byteLength":1000032,
			"byteOffset":5716960,
			"target":34962
		},
		{
			"buffer":0,
			"byteLength":1000032,
			"byteOffset":6716992,
			"target":34962
		},
		{
			"buffer":0,
			"byteLength":666688,
			"byteOffset":7717024,
			"target":34962
		},
		{
			"buffer":0,
			"byteLength":589824,
			"byteOffset":8383712,
			"target":34963
		},
		{
			"buffer":0,
			"byteLength":7406148,
			"byteOffset":8973536,
			"target":34962
		},
		{
			"buffer":0,
			"byteLength":7406148,
			"byteOffset":16379684,
			"target":34962
		},
		{
			"buffer":0,
			"byteLength":4937432,
			"byteOffset":23785832,
			"target":34962
		},
		{
			"buffer":0,
			"byteLength":3984384,
			"byteOffset":28723264,
			"target":34963
		}
	],
	"buffers":[
		{
			"byteLength":32707648,
			"uri":"loudspeaker.bin"
		}
	]
}
