{
	"asset":{
		"generator":"Khronos glTF Blender I/O v4.2.57",
		"version":"2.0"
	},
	"scene":0,
	"scenes":[
		{
			"name":"Scene",
			"nodes":[
				0,
				1
			]
		}
	],
	"nodes":[
		{
			"mesh":0,
			"name":"Sphere",
			"translation":[
				0,
				1.8533282279968262,
				0
			]
		},
		{
			"mesh":1,
			"name":"Cylinder",
			"scale":[
				0.3096667528152466,
				0.8860247731208801,
				0.3096667528152466
			],
			"translation":[
				0,
				0.8393256664276123,
				0
			]
		}
	],
	"materials":[
		{
			"doubleSided":true,
			"name":"Material.001",
			"pbrMetallicRoughness":{
				"baseColorFactor":[
					0.29745277762413025,
					0.8010008931159973,
					0.21052174270153046,
					1
				],
				"metallicFactor":0,
				"roughnessFactor":0.5
			}
		},
		{
			"doubleSided":true,
			"name":"Material.002",
			"pbrMetallicRoughness":{
				"baseColorFactor":[
					0.8004242181777954,
					0.20589789748191833,
					0.10154495388269424,
					1
				],
				"metallicFactor":0,
				"roughnessFactor":0.5
			}
		}
	],
	"meshes":[
		{
			"name":"Sphere.001",
			"primitives":[
				{
					"attributes":{
						"POSITION":0,
						"NORMAL":1
					},
					"indices":2,
					"material":0
				}
			]
		},
		{
			"name":"Cylinder",
			"primitives":[
				{
					"attributes":{
						"POSITION":3,
						"NORMAL":4
					},
					"indices":5,
					"material":1
				}
			]
		}
	],
	"accessors":[
		{
			"bufferView":0,
			"componentType":5126,
			"count":2520,
			"max":[
				1.0331720113754272,
				1.0331716537475586,
				1.0331714153289795
			],
			"min":[
				-1.0331714153289795,
				-1.0331716537475586,
				-1.0331720113754272
			],
			"type":"VEC3"
		},
		{
			"bufferView":1,
			"componentType":5126,
			"count":2520,
			"type":"VEC3"
		},
		{
			"bufferView":2,
			"componentType":5123,
			"count":6084,
			"type":"SCALAR"
		},
		{
			"bufferView":3,
			"componentType":5126,
			"count":1024,
			"max":[
				2.462052822113037,
				1.1489579677581787,
				2.462052822113037
			],
			"min":[
				-2.462052822113037,
				-1.1489579677581787,
				-2.462052822113037
			],
			"type":"VEC3"
		},
		{
			"bufferView":4,
			"componentType":5126,
			"count":1024,
			"type":"VEC3"
		},
		{
			"bufferView":5,
			"componentType":5123,
			"count":3252,
			"type":"SCALAR"
		}
	],
	"bufferViews":[
		{
			"buffer":0,
			"byteLength":30240,
			"byteOffset":0,
			"target":34962
		},
		{
			"buffer":0,
			"byteLength":30240,
			"byteOffset":30240,
			"target":34962
		},
		{
			"buffer":0,
			"byteLength":12168,
			"byteOffset":60480,
			"target":34963
		},
		{
			"buffer":0,
			"byteLength":12288,
			"byteOffset":72648,
			"target":34962
		},
		{
			"buffer":0,
			"byteLength":12288,
			"byteOffset":84936,
			"target":34962
		},
		{
			"buffer":0,
			"byteLength":6504,
			"byteOffset":97224,
			"target":34963
		}
	],
	"buffers":[
		{
			"byteLength":103728,
			"uri":"tree.bin"
		}
	]
}
