<svg width="397" height="94" viewBox="0 0 397 94" fill="none" xmlns="http://www.w3.org/2000/svg">
<path d="M0.472 34V0.399998H3.4L26.584 29.584H25.048V0.399998H28.552V34H25.624L2.488 4.816H4.024V34H0.472ZM38.1509 34V8.8H40.8149V34H38.1509ZM51.3182 27.736L51.2102 24.496L66.4742 8.8H69.5342L58.4102 20.464L56.8982 22.084L51.3182 27.736ZM49.0142 34V8.8H51.6782V34H49.0142ZM67.1222 34L56.2502 21.472L58.0502 19.528L70.2902 34H67.1222ZM84.7098 34.216C82.8138 34.216 81.0498 33.904 79.4178 33.28C77.8098 32.632 76.4058 31.732 75.2058 30.58C74.0298 29.404 73.1058 28.048 72.4338 26.512C71.7858 24.952 71.4618 23.248 71.4618 21.4C71.4618 19.552 71.7858 17.86 72.4338 16.324C73.1058 14.764 74.0298 13.408 75.2058 12.256C76.4058 11.08 77.8098 10.18 79.4178 9.556C81.0258 8.908 82.7898 8.584 84.7098 8.584C86.6058 8.584 88.3578 8.908 89.9658 9.556C91.5738 10.18 92.9658 11.068 94.1418 12.22C95.3418 13.372 96.2658 14.728 96.9138 16.288C97.5858 17.848 97.9218 19.552 97.9218 21.4C97.9218 23.248 97.5858 24.952 96.9138 26.512C96.2658 28.072 95.3418 29.428 94.1418 30.58C92.9658 31.732 91.5738 32.632 89.9658 33.28C88.3578 33.904 86.6058 34.216 84.7098 34.216ZM84.7098 31.84C86.2218 31.84 87.6138 31.588 88.8858 31.084C90.1818 30.556 91.2978 29.824 92.2338 28.888C93.1938 27.928 93.9378 26.824 94.4658 25.576C94.9938 24.304 95.2578 22.912 95.2578 21.4C95.2578 19.888 94.9938 18.508 94.4658 17.26C93.9378 15.988 93.1938 14.884 92.2338 13.948C91.2978 12.988 90.1818 12.256 88.8858 11.752C87.6138 11.224 86.2218 10.96 84.7098 10.96C83.1978 10.96 81.7938 11.224 80.4978 11.752C79.2018 12.256 78.0738 12.988 77.1138 13.948C76.1778 14.884 75.4338 15.988 74.8818 17.26C74.3538 18.508 74.0898 19.888 74.0898 21.4C74.0898 22.888 74.3538 24.268 74.8818 25.54C75.4338 26.812 76.1778 27.928 77.1138 28.888C78.0738 29.824 79.2018 30.556 80.4978 31.084C81.7938 31.588 83.1978 31.84 84.7098 31.84ZM103.893 34V8.8H106.089L117.609 28.456H116.457L127.869 8.8H130.065V34H127.509V12.796H128.121L117.609 30.796H116.349L105.765 12.796H106.449V34H103.893ZM134.244 34L145.764 8.8H148.392L159.912 34H157.104L146.52 10.348H147.6L137.016 34H134.244ZM138.78 27.268L139.572 25.108H154.224L155.016 27.268H138.78ZM164.081 34V8.8H173.513C175.649 8.8 177.485 9.148 179.021 9.844C180.557 10.516 181.733 11.5 182.549 12.796C183.389 14.068 183.809 15.616 183.809 17.44C183.809 19.216 183.389 20.752 182.549 22.048C181.733 23.32 180.557 24.304 179.021 25C177.485 25.672 175.649 26.008 173.513 26.008H165.557L166.745 24.784V34H164.081ZM181.289 34L174.809 24.856H177.689L184.205 34H181.289ZM166.745 25L165.557 23.74H173.441C175.961 23.74 177.869 23.188 179.165 22.084C180.485 20.98 181.145 19.432 181.145 17.44C181.145 15.424 180.485 13.864 179.165 12.76C177.869 11.656 175.961 11.104 173.441 11.104H165.557L166.745 9.844V25ZM200.248 34.216C197.032 34.216 194.5 33.292 192.652 31.444C190.804 29.596 189.88 26.86 189.88 23.236V8.8H192.544V23.128C192.544 26.104 193.216 28.3 194.56 29.716C195.904 31.132 197.8 31.84 200.248 31.84C202.72 31.84 204.628 31.132 205.972 29.716C207.316 28.3 207.988 26.104 207.988 23.128V8.8H210.58V23.236C210.58 26.86 209.656 29.596 207.808 31.444C205.984 33.292 203.464 34.216 200.248 34.216ZM251.512 34L236.632 0.399998H240.472L254.392 32.032H252.28L266.296 0.399998H269.896L255.016 34H251.512ZM274.108 34V8.8H283.54C285.676 8.8 287.512 9.148 289.048 9.844C290.584 10.516 291.76 11.5 292.576 12.796C293.416 14.068 293.836 15.616 293.836 17.44C293.836 19.216 293.416 20.752 292.576 22.048C291.76 23.32 290.584 24.304 289.048 25C287.512 25.672 285.676 26.008 283.54 26.008H275.584L276.772 24.784V34H274.108ZM291.316 34L284.836 24.856H287.716L294.232 34H291.316ZM276.772 25L275.584 23.74H283.468C285.988 23.74 287.896 23.188 289.192 22.084C290.512 20.98 291.172 19.432 291.172 17.44C291.172 15.424 290.512 13.864 289.192 12.76C287.896 11.656 285.988 11.104 283.468 11.104H275.584L276.772 9.844V25ZM311.068 34.216C309.172 34.216 307.42 33.904 305.812 33.28C304.204 32.632 302.812 31.732 301.636 30.58C300.46 29.428 299.536 28.072 298.864 26.512C298.216 24.952 297.892 23.248 297.892 21.4C297.892 19.552 298.216 17.848 298.864 16.288C299.536 14.728 300.46 13.372 301.636 12.22C302.836 11.068 304.24 10.18 305.848 9.556C307.456 8.908 309.208 8.584 311.104 8.584C312.928 8.584 314.644 8.896 316.252 9.52C317.86 10.12 319.216 11.032 320.32 12.256L318.628 13.948C317.596 12.892 316.456 12.136 315.208 11.68C313.96 11.2 312.616 10.96 311.176 10.96C309.664 10.96 308.26 11.224 306.964 11.752C305.668 12.256 304.54 12.988 303.58 13.948C302.62 14.884 301.864 15.988 301.312 17.26C300.784 18.508 300.52 19.888 300.52 21.4C300.52 22.912 300.784 24.304 301.312 25.576C301.864 26.824 302.62 27.928 303.58 28.888C304.54 29.824 305.668 30.556 306.964 31.084C308.26 31.588 309.664 31.84 311.176 31.84C312.616 31.84 313.96 31.6 315.208 31.12C316.456 30.64 317.596 29.872 318.628 28.816L320.32 30.508C319.216 31.732 317.86 32.656 316.252 33.28C314.644 33.904 312.916 34.216 311.068 34.216ZM344.431 8.8H347.059V34H344.431V8.8ZM328.663 34H325.999V8.8H328.663V34ZM344.683 22.372H328.375V20.032H344.683V22.372ZM351.252 34L362.772 8.8H365.4L376.92 34H374.112L363.528 10.348H364.608L354.024 34H351.252ZM355.788 27.268L356.58 25.108H371.232L372.024 27.268H355.788ZM384.719 34V11.104H375.863V8.8H396.239V11.104H387.383V34H384.719ZM3.64 75.672H21.4V78.744H3.64V75.672ZM4.024 93H0.472V59.4H23.512V62.472H4.024V93ZM40.495 93.216C38.599 93.216 36.835 92.904 35.203 92.28C33.595 91.632 32.191 90.732 30.991 89.58C29.815 88.404 28.891 87.048 28.219 85.512C27.571 83.952 27.247 82.248 27.247 80.4C27.247 78.552 27.571 76.86 28.219 75.324C28.891 73.764 29.815 72.408 30.991 71.256C32.191 70.08 33.595 69.18 35.203 68.556C36.811 67.908 38.575 67.584 40.495 67.584C42.391 67.584 44.143 67.908 45.751 68.556C47.359 69.18 48.751 70.068 49.927 71.22C51.127 72.372 52.051 73.728 52.699 75.288C53.371 76.848 53.707 78.552 53.707 80.4C53.707 82.248 53.371 83.952 52.699 85.512C52.051 87.072 51.127 88.428 49.927 89.58C48.751 90.732 47.359 91.632 45.751 92.28C44.143 92.904 42.391 93.216 40.495 93.216ZM40.495 90.84C42.007 90.84 43.399 90.588 44.671 90.084C45.967 89.556 47.083 88.824 48.019 87.888C48.979 86.928 49.723 85.824 50.251 84.576C50.779 83.304 51.043 81.912 51.043 80.4C51.043 78.888 50.779 77.508 50.251 76.26C49.723 74.988 48.979 73.884 48.019 72.948C47.083 71.988 45.967 71.256 44.671 70.752C43.399 70.224 42.007 69.96 40.495 69.96C38.983 69.96 37.579 70.224 36.283 70.752C34.987 71.256 33.859 71.988 32.899 72.948C31.963 73.884 31.219 74.988 30.667 76.26C30.139 77.508 29.875 78.888 29.875 80.4C29.875 81.888 30.139 83.268 30.667 84.54C31.219 85.812 31.963 86.928 32.899 87.888C33.859 88.824 34.987 89.556 36.283 90.084C37.579 90.588 38.983 90.84 40.495 90.84ZM70.6942 93.216C68.7982 93.216 67.0342 92.904 65.4022 92.28C63.7942 91.632 62.3902 90.732 61.1902 89.58C60.0142 88.404 59.0902 87.048 58.4182 85.512C57.7702 83.952 57.4462 82.248 57.4462 80.4C57.4462 78.552 57.7702 76.86 58.4182 75.324C59.0902 73.764 60.0142 72.408 61.1902 71.256C62.3902 70.08 63.7942 69.18 65.4022 68.556C67.0102 67.908 68.7742 67.584 70.6942 67.584C72.5902 67.584 74.3422 67.908 75.9502 68.556C77.5582 69.18 78.9502 70.068 80.1262 71.22C81.3262 72.372 82.2502 73.728 82.8982 75.288C83.5702 76.848 83.9062 78.552 83.9062 80.4C83.9062 82.248 83.5702 83.952 82.8982 85.512C82.2502 87.072 81.3262 88.428 80.1262 89.58C78.9502 90.732 77.5582 91.632 75.9502 92.28C74.3422 92.904 72.5902 93.216 70.6942 93.216ZM70.6942 90.84C72.2062 90.84 73.5982 90.588 74.8702 90.084C76.1662 89.556 77.2822 88.824 78.2182 87.888C79.1782 86.928 79.9222 85.824 80.4502 84.576C80.9782 83.304 81.2422 81.912 81.2422 80.4C81.2422 78.888 80.9782 77.508 80.4502 76.26C79.9222 74.988 79.1782 73.884 78.2182 72.948C77.2822 71.988 76.1662 71.256 74.8702 70.752C73.5982 70.224 72.2062 69.96 70.6942 69.96C69.1822 69.96 67.7782 70.224 66.4822 70.752C65.1862 71.256 64.0582 71.988 63.0982 72.948C62.1622 73.884 61.4182 74.988 60.8662 76.26C60.3382 77.508 60.0742 78.888 60.0742 80.4C60.0742 81.888 60.3382 83.268 60.8662 84.54C61.4182 85.812 62.1622 86.928 63.0982 87.888C64.0582 88.824 65.1862 89.556 66.4822 90.084C67.7782 90.588 69.1822 90.84 70.6942 90.84ZM94.4219 93V70.104H85.5659V67.8H105.942V70.104H97.0859V93H94.4219ZM110.198 93V67.8H119.63C121.766 67.8 123.602 68.148 125.138 68.844C126.674 69.516 127.85 70.5 128.666 71.796C129.506 73.068 129.926 74.616 129.926 76.44C129.926 78.216 129.506 79.752 128.666 81.048C127.85 82.32 126.674 83.304 125.138 84C123.602 84.696 121.766 85.044 119.63 85.044H111.674L112.862 83.784V93H110.198ZM112.862 84L111.674 82.704H119.558C122.078 82.704 123.986 82.164 125.282 81.084C126.602 79.98 127.262 78.432 127.262 76.44C127.262 74.424 126.602 72.864 125.282 71.76C123.986 70.656 122.078 70.104 119.558 70.104H111.674L112.862 68.844V84ZM135.686 93V67.8H145.118C147.254 67.8 149.09 68.148 150.626 68.844C152.162 69.516 153.338 70.5 154.154 71.796C154.994 73.068 155.414 74.616 155.414 76.44C155.414 78.216 154.994 79.752 154.154 81.048C153.338 82.32 152.162 83.304 150.626 84C149.09 84.672 147.254 85.008 145.118 85.008H137.162L138.35 83.784V93H135.686ZM152.894 93L146.414 83.856H149.294L155.81 93H152.894ZM138.35 84L137.162 82.74H145.046C147.566 82.74 149.474 82.188 150.77 81.084C152.09 79.98 152.75 78.432 152.75 76.44C152.75 74.424 152.09 72.864 150.77 71.76C149.474 70.656 147.566 70.104 145.046 70.104H137.162L138.35 68.844V84ZM161.702 93V67.8H164.366V93H161.702ZM172.565 93V67.8H174.761L192.149 89.688H190.997V67.8H193.625V93H191.429L174.077 71.112H175.229V93H172.565ZM206.746 93V70.104H197.89V67.8H218.266V70.104H209.41V93H206.746ZM229.083 93.216C227.211 93.216 225.411 92.916 223.683 92.316C221.979 91.692 220.659 90.9 219.723 89.94L220.767 87.888C221.655 88.752 222.843 89.484 224.331 90.084C225.843 90.66 227.427 90.948 229.083 90.948C230.667 90.948 231.951 90.756 232.935 90.372C233.943 89.964 234.675 89.424 235.131 88.752C235.611 88.08 235.851 87.336 235.851 86.52C235.851 85.536 235.563 84.744 234.987 84.144C234.435 83.544 233.703 83.076 232.791 82.74C231.879 82.38 230.871 82.068 229.767 81.804C228.663 81.54 227.559 81.264 226.455 80.976C225.351 80.664 224.331 80.256 223.395 79.752C222.483 79.248 221.739 78.588 221.163 77.772C220.611 76.932 220.335 75.84 220.335 74.496C220.335 73.248 220.659 72.108 221.307 71.076C221.979 70.02 222.999 69.18 224.367 68.556C225.735 67.908 227.487 67.584 229.623 67.584C231.039 67.584 232.443 67.788 233.835 68.196C235.227 68.58 236.427 69.12 237.435 69.816L236.535 71.94C235.455 71.22 234.303 70.692 233.079 70.356C231.879 70.02 230.715 69.852 229.587 69.852C228.075 69.852 226.827 70.056 225.843 70.464C224.859 70.872 224.127 71.424 223.647 72.12C223.191 72.792 222.963 73.56 222.963 74.424C222.963 75.408 223.239 76.2 223.791 76.8C224.367 77.4 225.111 77.868 226.023 78.204C226.959 78.54 227.979 78.84 229.083 79.104C230.187 79.368 231.279 79.656 232.359 79.968C233.463 80.28 234.471 80.688 235.383 81.192C236.319 81.672 237.063 82.32 237.615 83.136C238.191 83.952 238.479 85.02 238.479 86.34C238.479 87.564 238.143 88.704 237.471 89.76C236.799 90.792 235.767 91.632 234.375 92.28C233.007 92.904 231.243 93.216 229.083 93.216Z" fill="black"/>
</svg>
