{
	"asset":{
		"generator":"Khronos glTF Blender I/O v4.2.57",
		"version":"2.0"
	},
	"scene":0,
	"scenes":[
		{
			"name":"Scene",
			"nodes":[
				0
			]
		}
	],
	"nodes":[
		{
			"mesh":0,
			"name":"Plane"
		}
	],
	"materials":[
		{
			"doubleSided":true,
			"name":"Material.003",
			"pbrMetallicRoughness":{
				"baseColorFactor":[
					0.8000074625015259,
					0.1939360350370407,
					0.0672123059630394,
					1
				],
				"metallicFactor":0,
				"roughnessFactor":0.5
			}
		},
		{
			"doubleSided":true,
			"name":"Material.004",
			"pbrMetallicRoughness":{
				"baseColorFactor":[
					0.800000011920929,
					0.800000011920929,
					0.800000011920929,
					1
				],
				"metallicFactor":0,
				"roughnessFactor":0.5
			}
		}
	],
	"meshes":[
		{
			"name":"Mesh",
			"primitives":[
				{
					"attributes":{
						"POSITION":0,
						"NORMAL":1,
						"TEXCOORD_0":2
					},
					"indices":3,
					"material":0
				},
				{
					"attributes":{
						"POSITION":4,
						"NORMAL":5,
						"TEXCOORD_0":6
					},
					"indices":7,
					"material":1
				}
			]
		}
	],
	"accessors":[
		{
			"bufferView":0,
			"componentType":5126,
			"count":22966,
			"max":[
				1.0000001192092896,
				1.3034671545028687,
				1.0000001192092896
			],
			"min":[
				-1.0000001192092896,
				-0.05114632099866867,
				-1.0000001192092896
			],
			"type":"VEC3"
		},
		{
			"bufferView":1,
			"componentType":5126,
			"count":22966,
			"type":"VEC3"
		},
		{
			"bufferView":2,
			"componentType":5126,
			"count":22966,
			"type":"VEC2"
		},
		{
			"bufferView":3,
			"componentType":5123,
			"count":46080,
			"type":"SCALAR"
		},
		{
			"bufferView":4,
			"componentType":5126,
			"count":1152,
			"max":[
				0.4042060971260071,
				0.9537749886512756,
				0.4042060971260071
			],
			"min":[
				-0.4042060673236847,
				0.5334477424621582,
				-0.4042060971260071
			],
			"type":"VEC3"
		},
		{
			"bufferView":5,
			"componentType":5126,
			"count":1152,
			"type":"VEC3"
		},
		{
			"bufferView":6,
			"componentType":5126,
			"count":1152,
			"type":"VEC2"
		},
		{
			"bufferView":7,
			"componentType":5123,
			"count":3072,
			"type":"SCALAR"
		}
	],
	"bufferViews":[
		{
			"buffer":0,
			"byteLength":275592,
			"byteOffset":0,
			"target":34962
		},
		{
			"buffer":0,
			"byteLength":275592,
			"byteOffset":275592,
			"target":34962
		},
		{
			"buffer":0,
			"byteLength":183728,
			"byteOffset":551184,
			"target":34962
		},
		{
			"buffer":0,
			"byteLength":92160,
			"byteOffset":734912,
			"target":34963
		},
		{
			"buffer":0,
			"byteLength":13824,
			"byteOffset":827072,
			"target":34962
		},
		{
			"buffer":0,
			"byteLength":13824,
			"byteOffset":840896,
			"target":34962
		},
		{
			"buffer":0,
			"byteLength":9216,
			"byteOffset":854720,
			"target":34962
		},
		{
			"buffer":0,
			"byteLength":6144,
			"byteOffset":863936,
			"target":34963
		}
	],
	"buffers":[
		{
			"byteLength":870080,
			"uri":"corn.bin"
		}
	]
}
